<svg id="Galatasaray_Logo_2026" width="1905" height="2458" viewBox="0 0 1905 2458" fill="none"
  xmlns="http://www.w3.org/2000/svg">
  <g clip-path="url(#bleed)">
    <path d="M952.5 2273.65C1376.74 2273.65 1720.65 1805.94 1720.65 1229C1720.65 652.056 1376.74 184.35 952.5 184.35C528.263 184.35 184.35 652.056 184.35 1229C184.35 1805.94 528.263 2273.65 952.5 2273.65Z" fill="white"/>
    <path d="M952.5 2275.8C900.19 2275.8 847.91 2268.63 797.12 2254.5C747.63 2240.73 698.95 2220.18 652.44 2193.42C606.79 2167.16 562.76 2134.66 521.58 2096.82C480.8 2059.36 442.46 2016.33 407.62 1968.95C372.79 1921.58 341.16 1869.45 313.63 1814.03C285.84 1758.08 261.97 1698.27 242.68 1636.26C223.04 1573.11 207.96 1507.03 197.85 1439.85C187.48 1370.92 182.22 1299.98 182.22 1229C182.22 1158.02 187.48 1087.08 197.85 1018.15C207.96 950.97 223.04 884.89 242.68 821.74C261.97 759.73 285.84 699.92 313.63 643.97C341.16 588.54 372.79 536.42 407.62 489.05C442.46 441.67 480.8 398.64 521.58 361.18C562.76 323.34 606.79 290.84 652.44 264.58C698.95 237.82 747.63 217.28 797.12 203.5C847.91 189.36 900.19 182.2 952.5 182.2C1004.81 182.2 1057.09 189.37 1107.88 203.5C1157.37 217.27 1206.05 237.82 1252.56 264.58C1298.21 290.84 1342.24 323.34 1383.42 361.18C1424.2 398.64 1462.54 441.67 1497.38 489.05C1532.21 536.42 1563.84 588.55 1591.37 643.97C1619.16 699.92 1643.03 759.73 1662.32 821.74C1681.96 884.89 1697.04 950.97 1707.15 1018.15C1717.52 1087.08 1722.78 1158.02 1722.78 1229C1722.78 1299.98 1717.52 1370.93 1707.15 1439.85C1697.04 1507.03 1681.96 1573.11 1662.32 1636.26C1643.03 1698.27 1619.16 1758.08 1591.37 1814.03C1563.84 1869.46 1532.21 1921.58 1497.38 1968.95C1462.54 2016.33 1424.2 2059.36 1383.42 2096.82C1342.24 2134.66 1298.21 2167.16 1252.56 2193.42C1206.05 2220.18 1157.37 2240.72 1107.88 2254.5C1057.09 2268.64 1004.81 2275.8 952.5 2275.8ZM952.5 186.5C900.58 186.5 848.69 193.61 798.27 207.64C749.12 221.32 700.78 241.73 654.58 268.3C609.2 294.4 565.43 326.71 524.48 364.33C483.91 401.61 445.75 444.42 411.07 491.58C376.38 538.75 344.89 590.66 317.47 645.87C289.78 701.62 265.99 761.21 246.78 823C227.2 885.94 212.17 951.81 202.09 1018.77C191.75 1087.49 186.51 1158.21 186.51 1228.98C186.51 1299.75 191.75 1370.48 202.09 1439.19C212.17 1506.16 227.2 1572.02 246.78 1634.96C266 1696.75 289.78 1756.35 317.47 1812.09C344.89 1867.3 376.39 1919.2 411.07 1966.38C445.75 2013.54 483.9 2056.35 524.48 2093.63C565.43 2131.25 609.2 2163.56 654.58 2189.67C700.78 2216.25 749.13 2236.66 798.27 2250.33C848.69 2264.36 900.58 2271.47 952.5 2271.47C1004.42 2271.47 1056.31 2264.36 1106.73 2250.33C1155.88 2236.65 1204.22 2216.24 1250.42 2189.67C1295.8 2163.57 1339.57 2131.26 1380.52 2093.63C1421.09 2056.35 1459.25 2013.54 1493.93 1966.38C1528.62 1919.21 1560.11 1867.3 1587.53 1812.09C1615.22 1756.34 1639.01 1696.75 1658.22 1634.96C1677.8 1572.02 1692.83 1506.15 1702.91 1439.19C1713.25 1370.47 1718.49 1299.75 1718.49 1228.98C1718.49 1158.21 1713.25 1087.48 1702.91 1018.77C1692.83 951.81 1677.8 885.94 1658.22 823C1639 761.21 1615.22 701.61 1587.53 645.87C1560.11 590.66 1528.61 538.75 1493.93 491.58C1459.25 444.42 1421.1 401.6 1380.52 364.33C1339.57 326.71 1295.8 294.4 1250.42 268.3C1204.22 241.72 1155.87 221.31 1106.73 207.64C1056.31 193.61 1004.42 186.5 952.5 186.5Z" fill="black"/>
    <path d="M1505.56 1444.07C1505.56 1749.51 1257.95 1997.12 952.5 1997.12C647.05 1997.12 399.44 1749.51 399.44 1444.07C399.44 1138.63 647.05 891.02 952.5 891.02C1105.22 891.02 1243.49 952.92 1343.57 1053.01L1256.66 1139.91C1178.82 1062.07 1071.28 1013.92 952.49 1013.92C714.92 1013.92 522.33 1206.5 522.33 1444.07C522.33 1681.64 714.92 1874.22 952.49 1874.22C1190.06 1874.22 1382.65 1681.64 1382.65 1444.07H1216.73V1321.17H1491.85C1500.82 1360.7 1505.56 1401.83 1505.56 1444.07Z" fill="#A32638"/>
    <path d="M754.23 1342.52H757.69C781.08 1342.52 787.32 1330.37 787.84 1321.17H807.8V1444.08H783.5V1359.37H754.22V1342.53L754.23 1342.52Z" fill="black"/>
    <path d="M858.25 1359.93C858.25 1342.08 869.65 1338.92 875.97 1338.92C888.6 1338.92 894.74 1347.67 894.74 1361.85C894.74 1376.03 885.27 1382.68 876.67 1382.68C867.38 1382.68 858.25 1378.65 858.25 1359.92V1359.93ZM836.17 1414.37C838.27 1434.1 853.52 1446.41 874.75 1446.41C897.19 1446.41 919.94 1430.76 919.94 1382.68C919.94 1365.17 919.24 1318.87 876.16 1318.87C851.78 1318.87 833.72 1332.99 833.72 1363.43C833.72 1384.26 847.57 1402.37 871.42 1402.37C879.84 1402.37 889.49 1400.27 895.1 1391.83L895.45 1392.18C895.27 1418.2 885.1 1426.73 874.93 1426.73C867.39 1426.73 861.95 1423.08 860.55 1414.55V1414.37H836.18H836.17Z" fill="black"/>
    <path d="M965.08 1382.45C965.08 1350.54 968.94 1338.5 982.99 1338.5C997.04 1338.5 1000.9 1350.54 1000.9 1382.45C1000.9 1414.36 997.03 1426.57 982.99 1426.57C968.94 1426.57 965.08 1414.36 965.08 1382.44V1382.45ZM939.92 1382.45C939.92 1425.88 953.72 1446.25 983 1446.25C1012.28 1446.25 1026.09 1425.88 1026.09 1382.46C1026.09 1339.04 1012.28 1318.84 983 1318.84C953.72 1318.84 939.92 1339.04 939.92 1382.45Z" fill="black"/>
    <path d="M1066.71 1368.6C1071.25 1365.45 1076.83 1361.76 1088.87 1361.76C1105.45 1361.76 1126.38 1373.33 1126.38 1401.72C1126.38 1418.57 1117.83 1446.2 1081.37 1446.2C1061.99 1446.2 1042.24 1434.64 1041.02 1409.72H1065.49C1066.54 1419.8 1071.95 1426.58 1082.76 1426.58C1094.45 1426.58 1101.26 1416.68 1101.26 1403.47C1101.26 1392.52 1096.03 1381.4 1083.11 1381.4C1079.79 1381.4 1071.41 1381.58 1066.71 1390.26L1044.86 1389.22L1053.43 1321.17H1121.5V1341.75H1071.08L1066.72 1368.6H1066.71Z" fill="black"/>
    <path d="M1244.4 1444.07C1244.4 1518.77 1215.9 1593.48 1158.91 1650.47C1044.92 1764.46 860.1 1764.46 746.11 1650.47C657.06 1561.42 637.57 1429.14 687.66 1321.18H556.25C512.25 1463.46 546.57 1624.75 659.2 1737.38C821.19 1899.37 1083.83 1899.37 1245.81 1737.38C1326.81 1656.39 1367.3 1550.23 1367.3 1444.07H1244.4Z" fill="#FFB300"/>
    <path d="M1245.81 1150.77L1245.83 1150.73C1234.05 1138.98 1221.44 1127.81 1208 1117.3C1183.45 1097.35 881.14 883.29 843.87 846.02C816.07 818.22 798.87 779.81 798.87 737.39C798.87 652.55 867.65 583.77 952.5 583.77C1037.35 583.77 1106.13 652.55 1106.13 737.39H1229.03C1229.03 584.67 1105.22 460.87 952.5 460.87C799.78 460.87 675.97 584.67 675.97 737.39C675.97 813.75 706.92 882.88 756.96 932.92C806.6 982.57 1098.45 1186.86 1132.29 1214.11C1141.75 1221.5 1150.63 1229.37 1158.92 1237.64V1237.67C1183.84 1262.6 1203.32 1290.92 1217.34 1321.15H1348.75C1329.47 1258.81 1295.15 1200.11 1245.8 1150.76L1245.81 1150.77Z" fill="#FFB300"/>
  </g>
  <defs>
    <clipPath id="bleed">
      <rect width="1905" height="2458" fill="white"/>
    </clipPath>
  </defs>
</svg>
