<?xml version="1.0" encoding="UTF-8"?>
<svg id="Layer_2" data-name="Layer 2" xmlns="http://www.w3.org/2000/svg" width="9369.48" height="12880.43" viewBox="0 0 9369.48 12880.43">
  <defs>
    <style>
      .cls-1 {
        fill: none;
      }

      .cls-2 {
        fill: #a32638;
      }

      .cls-3 {
        fill: #ffb300;
      }

      .cls-4 {
        fill: #fff;
      }
    </style>
  </defs>
  <g id="EXPORTS">
    <g id="galatasaray-2026-with-stars">
      <g>
        <g>
          <ellipse class="cls-4" cx="4684.74" cy="7211.14" rx="3543.31" ry="4818.9"/>
          <path d="M4684.74,12039.96c-241.31,0-482.46-33.06-716.76-98.27-228.3-63.54-452.85-158.33-667.4-281.75-210.59-121.14-413.69-271.06-603.65-445.59-188.1-172.82-364.96-371.28-525.68-589.86-160.68-218.53-306.55-458.97-433.56-714.65-128.21-258.09-238.32-533.98-327.28-820.03-90.59-291.3-160.17-596.13-206.8-906.03-47.84-317.96-72.1-645.2-72.1-972.65s24.26-654.69,72.1-972.65c46.63-309.9,116.21-614.73,206.8-906.03,88.96-286.04,199.07-561.94,327.28-820.03,127.01-255.68,272.88-496.12,433.56-714.65,160.72-218.58,337.58-417.04,525.68-589.86,189.96-174.54,393.06-324.46,603.65-445.59,214.56-123.42,439.1-218.21,667.4-281.75,234.3-65.21,475.45-98.27,716.76-98.27s482.46,33.06,716.76,98.27c228.3,63.53,452.84,158.33,667.4,281.75,210.59,121.14,413.69,271.06,603.65,445.59,188.1,172.82,364.96,371.28,525.68,589.86,160.68,218.52,306.55,458.97,433.56,714.65,128.21,258.09,238.32,533.98,327.28,820.03,90.59,291.3,160.17,596.13,206.8,906.03,47.84,317.96,72.1,645.2,72.1,972.65s-24.26,654.7-72.1,972.65c-46.63,309.9-116.21,614.73-206.8,906.03-88.96,286.04-199.07,561.94-327.28,820.03-127.01,255.68-272.88,496.12-433.56,714.65-160.72,218.58-337.58,417.04-525.68,589.86-189.96,174.54-393.06,324.46-603.65,445.59-214.56,123.42-439.1,218.21-667.4,281.75-234.3,65.21-475.45,98.27-716.76,98.27ZM4684.74,2402.16c-239.51,0-478.87,32.82-711.44,97.54-226.7,63.09-449.71,157.24-662.83,279.83-209.32,120.41-411.23,269.46-600.12,443-187.15,171.96-363.16,369.45-523.12,587-160,217.6-305.27,457.06-431.78,711.72-127.74,257.15-237.46,532.06-326.1,817.09-90.3,290.34-159.65,594.18-206.13,903.09-47.69,316.98-71.88,643.24-71.88,969.7s24.18,652.72,71.88,969.7c46.48,308.91,115.83,612.75,206.13,903.09,88.65,285.04,198.36,559.95,326.1,817.09,126.5,254.66,271.77,494.11,431.78,711.72,159.96,217.55,335.96,415.04,523.12,587,188.89,173.55,390.79,322.6,600.12,443.01,213.12,122.59,436.13,216.74,662.83,279.83,232.57,64.72,471.93,97.54,711.44,97.54s478.87-32.82,711.44-97.54c226.7-63.09,449.71-157.24,662.83-279.83,209.32-120.41,411.23-269.46,600.12-443.01,187.15-171.96,363.16-369.45,523.12-587,160-217.61,305.27-457.06,431.78-711.72,127.74-257.15,237.46-532.05,326.1-817.09,90.3-290.34,159.65-594.18,206.13-903.09,47.69-316.98,71.88-643.24,71.88-969.7s-24.18-652.72-71.88-969.7c-46.48-308.9-115.83-612.75-206.13-903.09-88.65-285.04-198.37-559.95-326.1-817.09-126.5-254.66-271.77-494.12-431.78-711.72-159.96-217.55-335.96-415.05-523.12-587-188.89-173.55-390.79-322.6-600.12-443-213.12-122.59-436.13-216.74-662.83-279.83-232.57-64.72-471.93-97.54-711.44-97.54Z"/>
        </g>
        <g>
          <path class="cls-2" d="M7235.92,8203.26c0,1408.98-1142.2,2551.18-2551.18,2551.18s-2551.18-1142.2-2551.18-2551.18,1142.2-2551.18,2551.18-2551.18c704.48,0,1342.28,285.55,1803.95,747.23l-400.88,400.87c-359.07-359.08-855.14-581.17-1403.07-581.17-1095.87,0-1984.25,888.38-1984.25,1984.25s888.38,1984.25,1984.25,1984.25,1984.25-888.38,1984.25-1984.25h-765.35v-566.92h1269.06c41.38,182.33,63.22,372.07,63.22,566.92Z"/>
          <g>
            <path id="path12" d="M3770.16,7734.8h15.98c107.88,0,136.69-56.06,139.09-98.49h92.09v566.96h-112.1v-390.78h-135.04v-77.69h0Z"/>
            <path id="path14" d="M4249.99,7815.09c0-82.35,52.59-96.9,81.72-96.9,58.27,0,86.57,40.37,86.57,105.78s-43.7,96.1-83.34,96.1c-42.87,0-84.95-18.57-84.95-104.98ZM4148.11,8066.25c9.68,91.03,80.05,147.79,177.94,147.79,103.53,0,208.44-72.17,208.44-293.96,0-80.76-3.23-294.35-201.96-294.35-112.47,0-195.76,65.14-195.76,205.53,0,96.11,63.89,179.61,173.9,179.61,38.85,0,83.34-9.71,109.23-48.64l1.62,1.63c-.81,120.05-47.74,159.36-94.66,159.36-34.79-.02-59.87-16.85-66.35-56.17v-.81h-112.39Z"/>
            <path id="path16" d="M4742.78,7918.99c0-147.21,17.81-202.72,82.63-202.72s82.63,55.52,82.63,202.73c.02,147.21-17.83,203.54-82.63,203.54-64.81-.02-82.63-56.31-82.63-203.56h0ZM4626.69,7918.99c0,200.34,63.67,294.29,198.73,294.29s198.76-93.95,198.76-294.27-63.7-293.47-198.76-293.47c-135.07,0-198.74,93.16-198.73,293.45h0Z"/>
            <path id="path18" d="M5211.55,7855.12c20.92-14.54,46.68-31.53,102.22-31.53,76.46,0,173.01,53.36,173.01,184.33,0,77.74-39.42,205.16-207.61,205.16-89.39,0-180.49-53.34-186.14-168.3h112.88c4.83,46.51,29.79,77.76,79.68,77.76,53.94-.02,85.32-45.67,85.32-106.6,0-50.51-24.14-101.8-83.71-101.8-15.3-.02-53.95.82-75.67,40.88l-100.79-4.82,39.52-313.91h313.98v94.95h-232.6l-20.11,123.87h0Z"/>
          </g>
          <path class="cls-3" d="M6031.2,8203.23c.01,344.6-131.45,689.2-394.37,952.12-525.82,525.82-1378.35,525.82-1904.18-.01-410.79-410.79-500.66-1020.98-269.6-1519.01h-606.18c-202.95,656.33-44.65,1400.34,474.9,1919.89,747.23,747.23,1958.72,747.23,2705.94,0,373.62-373.62,560.43-863.32,560.42-1353h-566.93Z"/>
          <path class="cls-3" d="M6037.71,6850.29l.08-.18c-54.34-54.21-112.52-105.73-174.51-154.2-113.25-92.02-1507.74-1079.48-1679.64-1251.39-128.24-128.25-207.56-305.41-207.56-501.1,0-391.38,317.28-708.66,708.66-708.66s708.67,317.28,708.67,708.66h566.93c0-704.49-571.11-1275.59-1275.6-1275.59s-1275.59,571.1-1275.59,1275.59c0,352.25,142.78,671.14,373.61,901.98,229,229.01,1575.21,1171.39,1731.32,1297.13,43.63,34.11,84.59,70.38,122.84,108.55l-.03.15c114.99,115.01,204.84,245.64,269.53,385.07h606.19c-88.94-287.59-247.24-558.35-474.9-786.01Z"/>
        </g>
      </g>
      <rect class="cls-1" x="291.04" y="1541.85" width="8787.4" height="11338.58"/>
      <g>
        <polygon class="cls-3" points="4684.74 0 4923.44 734.66 5695.91 734.66 5070.97 1188.7 5309.68 1923.35 4684.74 1469.31 4059.81 1923.35 4298.51 1188.7 3673.57 734.66 4446.04 734.66 4684.74 0"/>
        <polygon class="cls-3" points="1968.26 785.08 2151.02 1535.61 1493.7 1941.35 2263.98 1999.46 2446.74 2749.99 2740.03 2035.38 3510.3 2093.49 2921.3 1593.72 3214.59 879.1 2557.27 1284.85 1968.26 785.08"/>
        <polygon class="cls-3" points="0 2766.3 490.22 3363.27 73.95 4013.98 793.2 3732.23 1283.42 4329.2 1237.71 3558.09 1956.96 3276.34 1209.47 3081.52 1163.76 2310.41 747.49 2961.12 0 2766.3"/>
        <polygon class="cls-3" points="7401.22 785.08 7218.46 1535.61 7875.78 1941.35 7105.51 1999.46 6922.74 2749.99 6629.45 2035.38 5859.18 2093.49 6448.19 1593.72 6154.89 879.1 6812.21 1284.85 7401.22 785.08"/>
        <polygon class="cls-3" points="9369.48 2766.3 8879.26 3363.27 9295.53 4013.98 8576.29 3732.23 8086.06 4329.2 8131.77 3558.09 7412.52 3276.34 8160.01 3081.52 8205.72 2310.41 8621.99 2961.12 9369.48 2766.3"/>
      </g>
    </g>
  </g>
</svg>