<svg id="Galatasaray_Logo_2026" width="1905" height="2458" viewBox="0 0 1905 2458" fill="none"
  xmlns="http://www.w3.org/2000/svg">
  <g clip-path="url(#bleed)">
    <path d="M952.5 2273.65C1376.74 2273.65 1720.65 1805.94 1720.65 1229C1720.65 652.056 1376.74 184.35 952.5 184.35C528.263 184.35 184.35 652.056 184.35 1229C184.35 1805.94 528.263 2273.65 952.5 2273.65Z" fill="white"/>
    <path d="M1505.56 1444.07C1505.56 1749.51 1257.95 1997.12 952.5 1997.12C647.05 1997.12 399.44 1749.51 399.44 1444.07C399.44 1138.63 647.05 891.02 952.5 891.02C1105.22 891.02 1243.49 952.92 1343.57 1053.01L1256.66 1139.91C1178.82 1062.07 1071.28 1013.92 952.49 1013.92C714.92 1013.92 522.33 1206.5 522.33 1444.07C522.33 1681.64 714.92 1874.22 952.49 1874.22C1190.06 1874.22 1382.65 1681.64 1382.65 1444.07H1216.73V1321.17H1491.85C1500.82 1360.7 1505.56 1401.83 1505.56 1444.07Z" fill="#A32638"/>
    <path d="M754.23 1342.52H757.69C781.08 1342.52 787.32 1330.37 787.84 1321.17H807.8V1444.08H783.5V1359.37H754.22V1342.53L754.23 1342.52Z" fill="black"/>
    <path d="M858.25 1359.93C858.25 1342.08 869.65 1338.92 875.97 1338.92C888.6 1338.92 894.74 1347.67 894.74 1361.85C894.74 1376.03 885.27 1382.68 876.67 1382.68C867.38 1382.68 858.25 1378.65 858.25 1359.92V1359.93ZM836.17 1414.37C838.27 1434.1 853.52 1446.41 874.75 1446.41C897.19 1446.41 919.94 1430.76 919.94 1382.68C919.94 1365.17 919.24 1318.87 876.16 1318.87C851.78 1318.87 833.72 1332.99 833.72 1363.43C833.72 1384.26 847.57 1402.37 871.42 1402.37C879.84 1402.37 889.49 1400.27 895.1 1391.83L895.45 1392.18C895.27 1418.2 885.1 1426.73 874.93 1426.73C867.39 1426.73 861.95 1423.08 860.55 1414.55V1414.37H836.18H836.17Z" fill="black"/>
    <path d="M965.08 1382.45C965.08 1350.54 968.94 1338.5 982.99 1338.5C997.04 1338.5 1000.9 1350.54 1000.9 1382.45C1000.9 1414.36 997.03 1426.57 982.99 1426.57C968.94 1426.57 965.08 1414.36 965.08 1382.44V1382.45ZM939.92 1382.45C939.92 1425.88 953.72 1446.25 983 1446.25C1012.28 1446.25 1026.09 1425.88 1026.09 1382.46C1026.09 1339.04 1012.28 1318.84 983 1318.84C953.72 1318.84 939.92 1339.04 939.92 1382.45Z" fill="black"/>
    <path d="M1066.71 1368.6C1071.25 1365.45 1076.83 1361.76 1088.87 1361.76C1105.45 1361.76 1126.38 1373.33 1126.38 1401.72C1126.38 1418.57 1117.83 1446.2 1081.37 1446.2C1061.99 1446.2 1042.24 1434.64 1041.02 1409.72H1065.49C1066.54 1419.8 1071.95 1426.58 1082.76 1426.58C1094.45 1426.58 1101.26 1416.68 1101.26 1403.47C1101.26 1392.52 1096.03 1381.4 1083.11 1381.4C1079.79 1381.4 1071.41 1381.58 1066.71 1390.26L1044.86 1389.22L1053.43 1321.17H1121.5V1341.75H1071.08L1066.72 1368.6H1066.71Z" fill="black"/>
    <path d="M1244.4 1444.07C1244.4 1518.77 1215.9 1593.48 1158.91 1650.47C1044.92 1764.46 860.1 1764.46 746.11 1650.47C657.06 1561.42 637.57 1429.14 687.66 1321.18H556.25C512.25 1463.46 546.57 1624.75 659.2 1737.38C821.19 1899.37 1083.83 1899.37 1245.81 1737.38C1326.81 1656.39 1367.3 1550.23 1367.3 1444.07H1244.4Z" fill="#FFB300"/>
    <path d="M1245.81 1150.77L1245.83 1150.73C1234.05 1138.98 1221.44 1127.81 1208 1117.3C1183.45 1097.35 881.14 883.29 843.87 846.02C816.07 818.22 798.87 779.81 798.87 737.39C798.87 652.55 867.65 583.77 952.5 583.77C1037.35 583.77 1106.13 652.55 1106.13 737.39H1229.03C1229.03 584.67 1105.22 460.87 952.5 460.87C799.78 460.87 675.97 584.67 675.97 737.39C675.97 813.75 706.92 882.88 756.96 932.92C806.6 982.57 1098.45 1186.86 1132.29 1214.11C1141.75 1221.5 1150.63 1229.37 1158.92 1237.64V1237.67C1183.84 1262.6 1203.32 1290.92 1217.34 1321.15H1348.75C1329.47 1258.81 1295.15 1200.11 1245.8 1150.76L1245.81 1150.77Z" fill="#FFB300"/>
  </g>
  <defs>
    <clipPath id="bleed">
      <rect width="1905" height="2458" fill="white"/>
    </clipPath>
  </defs>
</svg>
