<svg id="Galatasaray_Logo_Monochrome_2026" width="1905" height="2366" viewBox="0 0 1905 2366" fill="none"
  xmlns="http://www.w3.org/2000/svg">
  <path d="M931.23 1120.97C938.28 1120.64 945.37 1120.47 952.5 1120.47C1073.89 1120.47 1183.8 1169.68 1263.35 1249.22L1194.3 1318.27L1194.28 1318.29C1154.84 1278.85 1088.93 1239.61 931.24 1120.97H931.23Z" fill="black"/>
  <path d="M1392.11 1560.06C1392.11 1802.84 1195.29 1999.67 952.49 1999.67C709.69 1999.67 512.87 1802.85 512.87 1560.06C512.87 1377.98 623.57 1221.75 781.35 1155.02C783.65 1157.54 786.01 1160.01 788.42 1162.41C801.2 1175.18 832.32 1199.56 870.38 1228.07C721.19 1264.84 610.55 1399.53 610.55 1560.06C610.55 1748.89 763.63 1901.97 952.47 1901.97C1141.31 1901.97 1294.39 1748.89 1294.39 1560.06H1162.51V1462.37H1381.19C1388.32 1493.79 1392.08 1526.48 1392.08 1560.06H1392.11Z" fill="black"/>
  <path d="M794.9 1479.34H797.65C816.24 1479.34 821.2 1469.68 821.62 1462.37H837.49V1560.07H818.17V1492.73H794.9V1479.34Z" fill="black"/>
  <path d="M877.58 1493.17C877.58 1478.98 886.64 1476.47 891.66 1476.47C901.7 1476.47 906.58 1483.43 906.58 1494.7C906.58 1505.97 899.05 1511.26 892.22 1511.26C884.83 1511.26 877.58 1508.06 877.58 1493.17ZM860.03 1536.45C861.7 1552.14 873.82 1561.92 890.69 1561.92C908.53 1561.92 926.61 1549.48 926.61 1511.27C926.61 1497.35 926.05 1460.55 891.81 1460.55C872.43 1460.55 858.08 1471.77 858.08 1495.97C858.08 1512.53 869.09 1526.92 888.05 1526.92C894.74 1526.92 902.41 1525.25 906.87 1518.54L907.15 1518.82C907.01 1539.51 898.92 1546.28 890.84 1546.28C884.85 1546.28 880.52 1543.38 879.41 1536.6V1536.46H860.04L860.03 1536.45Z" fill="black"/>
  <path d="M962.5 1511.08C962.5 1485.71 965.57 1476.15 976.74 1476.15C987.91 1476.15 990.98 1485.72 990.98 1511.08C990.98 1536.45 987.91 1546.15 976.74 1546.15C965.57 1546.15 962.5 1536.45 962.5 1511.07V1511.08ZM942.5 1511.08C942.5 1545.6 953.47 1561.79 976.74 1561.79C1000.01 1561.79 1010.99 1545.6 1010.99 1511.08C1010.99 1476.56 1000.01 1460.51 976.74 1460.51C953.47 1460.51 942.49 1476.56 942.5 1511.08Z" fill="black"/>
  <path d="M1043.28 1500.07C1046.88 1497.56 1051.32 1494.64 1060.89 1494.64C1074.07 1494.64 1090.7 1503.83 1090.7 1526.4C1090.7 1539.8 1083.91 1561.75 1054.93 1561.75C1039.53 1561.75 1023.83 1552.56 1022.85 1532.75H1042.3C1043.13 1540.76 1047.43 1546.15 1056.03 1546.15C1065.32 1546.15 1070.73 1538.28 1070.73 1527.78C1070.73 1519.08 1066.57 1510.24 1056.31 1510.24C1053.67 1510.24 1047.01 1510.38 1043.27 1517.28L1025.9 1516.45L1032.71 1462.36H1086.81V1478.72H1046.73L1043.26 1500.07H1043.28Z" fill="black"/>
  <path d="M1281.98 1572.27C1279.03 1652.53 1246.91 1731.92 1185.64 1793.19C1056.88 1921.95 848.12 1921.95 719.36 1793.19C629.83 1703.67 602.55 1575.47 637.53 1462.37H741.99C702.17 1548.19 717.66 1653.34 788.45 1724.12C879.06 1814.72 1025.97 1814.72 1116.58 1724.12C1158.78 1681.92 1181.33 1627.51 1184.22 1572.26H1282.01L1281.98 1572.27Z" fill="black"/>
  <path d="M1263.43 1450.16H1156.9C1146.43 1430.72 1132.99 1412.44 1116.56 1396.02V1395.99C1109.97 1389.41 1102.92 1383.16 1095.4 1377.28C1068.5 1355.61 836.52 1193.22 797.06 1153.77C757.28 1113.99 732.68 1059.04 732.68 998.341C732.68 876.946 831.09 778.539 952.49 778.539C1073.89 778.539 1172.3 876.946 1172.3 998.341H1074.61C1074.61 930.904 1019.94 876.226 952.49 876.226C885.04 876.226 830.37 930.894 830.37 998.341C830.37 1032.06 844.04 1062.59 866.14 1084.69C895.76 1114.31 1136.06 1284.46 1155.57 1300.32C1166.25 1308.67 1176.28 1317.55 1185.64 1326.89V1326.92C1221.62 1362.91 1247.55 1405.16 1263.42 1450.15L1263.43 1450.16Z" fill="black"/>
  <path d="M952.5 146.542L993.63 273.127H1126.74L1019.05 351.365L1060.19 477.96L952.5 399.723L844.81 477.96L885.95 351.365L778.26 273.127H911.37L952.5 146.542Z" fill="black"/>
  <path d="M484.4 281.817L515.89 411.143L402.63 481.06L535.36 491.07L566.85 620.395L617.39 497.26L750.12 507.269L648.63 421.162L699.17 298.017L585.9 367.934L484.4 281.817Z" fill="black"/>
  <path d="M145.23 623.205L229.71 726.071L157.98 838.197L281.91 789.649L366.39 892.515L358.51 759.64L482.45 711.092L353.65 677.523L345.77 544.658L274.04 656.774L145.23 623.205Z" fill="black"/>
  <path d="M1420.6 281.817L1389.11 411.143L1502.37 481.06L1369.64 491.07L1338.15 620.395L1287.61 497.26L1154.88 507.269L1256.37 421.162L1205.83 298.017L1319.1 367.934L1420.6 281.817Z" fill="black"/>
  <path d="M1759.77 623.205L1675.29 726.071L1747.02 838.197L1623.08 789.649L1538.61 892.515L1546.49 759.64L1422.55 711.092L1551.35 677.523L1559.23 544.658L1630.96 656.774L1759.77 623.205Z" fill="black"/>
</svg>
