<svg id="Galatasaray_Logo_2026_with_5_Stars" width="1905" height="2366" viewBox="0 0 1905 2366" fill="none"
  xmlns="http://www.w3.org/2000/svg">
  <g clip-path="url(#bleed)">
    <path d="M952.5 2219.47C1289.71 2219.47 1563.08 1847.71 1563.08 1389.11C1563.08 930.515 1289.71 558.75 952.5 558.75C615.286 558.75 341.92 930.515 341.92 1389.11C341.92 1847.71 615.286 2219.47 952.5 2219.47Z" fill="white"/>
    <path d="M952.5 2221.17C910.92 2221.17 869.36 2215.47 828.99 2204.24C789.65 2193.29 750.96 2176.96 713.98 2155.69C677.69 2134.82 642.69 2108.98 609.96 2078.91C577.55 2049.13 547.07 2014.93 519.38 1977.27C491.69 1939.61 466.56 1898.18 444.67 1854.13C422.58 1809.66 403.6 1762.12 388.27 1712.83C372.66 1662.64 360.67 1610.11 352.63 1556.71C344.39 1501.92 340.21 1445.53 340.21 1389.11C340.21 1332.69 344.39 1276.3 352.63 1221.51C360.67 1168.11 372.66 1115.58 388.27 1065.39C403.6 1016.1 422.57 968.56 444.67 924.09C466.56 880.03 491.69 838.6 519.38 800.95C547.07 763.29 577.55 729.09 609.96 699.31C642.69 669.23 677.69 643.4 713.98 622.53C750.95 601.26 789.65 584.93 828.99 573.98C869.36 562.74 910.92 557.05 952.5 557.05C994.08 557.05 1035.64 562.75 1076.01 573.98C1115.35 584.93 1154.04 601.26 1191.02 622.53C1227.31 643.4 1262.31 669.24 1295.04 699.31C1327.45 729.09 1357.93 763.29 1385.62 800.95C1413.31 838.6 1438.44 880.04 1460.33 924.09C1482.42 968.56 1501.4 1016.1 1516.73 1065.39C1532.34 1115.58 1544.33 1168.11 1552.37 1221.51C1560.61 1276.3 1564.79 1332.69 1564.79 1389.11C1564.79 1445.53 1560.61 1501.92 1552.37 1556.71C1544.33 1610.11 1532.34 1662.64 1516.73 1712.83C1501.4 1762.12 1482.43 1809.66 1460.33 1854.13C1438.44 1898.19 1413.31 1939.62 1385.62 1977.27C1357.92 2014.93 1327.45 2049.13 1295.04 2078.91C1262.31 2108.99 1227.31 2134.82 1191.02 2155.69C1154.05 2176.96 1115.35 2193.29 1076.01 2204.24C1035.64 2215.48 994.08 2221.17 952.5 2221.17ZM952.5 560.46C911.23 560.46 869.98 566.12 829.91 577.27C790.85 588.14 752.42 604.36 715.69 625.49C679.62 646.24 644.83 671.92 612.28 701.82C580.03 731.45 549.7 765.48 522.14 802.97C494.57 840.47 469.54 881.73 447.74 925.61C425.73 969.92 406.82 1017.29 391.55 1066.41C375.99 1116.44 364.04 1168.79 356.03 1222.02C347.81 1276.64 343.64 1332.86 343.64 1389.11C343.64 1445.36 347.81 1501.58 356.03 1556.2C364.04 1609.43 375.99 1661.78 391.55 1711.81C406.83 1760.93 425.73 1808.3 447.74 1852.61C469.54 1896.49 494.57 1937.75 522.14 1975.25C549.7 2012.74 580.03 2046.77 612.28 2076.4C644.83 2106.3 679.62 2131.99 715.69 2152.74C752.41 2173.86 790.84 2190.09 829.91 2200.96C869.99 2212.11 911.23 2217.77 952.5 2217.77C993.77 2217.77 1035.02 2212.11 1075.09 2200.96C1114.15 2190.09 1152.58 2173.87 1189.31 2152.74C1225.38 2131.99 1260.17 2106.31 1292.72 2076.4C1324.97 2046.77 1355.3 2012.74 1382.86 1975.25C1410.43 1937.75 1435.46 1896.49 1457.26 1852.61C1479.27 1808.3 1498.18 1760.93 1513.45 1711.81C1529.01 1661.78 1540.96 1609.43 1548.97 1556.2C1557.19 1501.58 1561.36 1445.36 1561.36 1389.11C1561.36 1332.86 1557.19 1276.64 1548.97 1222.02C1540.96 1168.79 1529.01 1116.44 1513.45 1066.41C1498.17 1017.29 1479.27 969.92 1457.26 925.61C1435.46 881.73 1410.43 840.47 1382.86 802.97C1355.3 765.48 1324.97 731.45 1292.72 701.82C1260.17 671.92 1225.38 646.23 1189.31 625.49C1152.59 604.37 1114.16 588.14 1075.09 577.27C1035.01 566.12 993.77 560.46 952.5 560.46Z" fill="black"/>
    <path d="M1392.12 1560.06C1392.12 1802.85 1195.3 1999.66 952.5 1999.66C709.7 1999.66 512.88 1802.84 512.88 1560.06C512.88 1317.28 709.7 1120.46 952.5 1120.46C1073.89 1120.46 1183.8 1169.66 1263.35 1249.22L1194.27 1318.3C1132.4 1256.43 1046.91 1218.16 952.5 1218.16C763.66 1218.16 610.58 1371.24 610.58 1560.07C610.58 1748.9 763.66 1901.98 952.5 1901.98C1141.34 1901.98 1294.42 1748.9 1294.42 1560.07H1162.54V1462.38H1381.22C1388.35 1493.8 1392.11 1526.49 1392.11 1560.07L1392.12 1560.06Z" fill="#A32638"/>
    <path d="M794.9 1479.34H797.65C816.24 1479.34 821.2 1469.68 821.62 1462.37H837.49V1560.06H818.17V1492.72H794.9V1479.33V1479.34Z" fill="black"/>
    <path d="M877.58 1493.18C877.58 1478.99 886.64 1476.48 891.66 1476.48C901.7 1476.48 906.58 1483.44 906.58 1494.71C906.58 1505.98 899.05 1511.27 892.22 1511.27C884.83 1511.27 877.58 1508.07 877.58 1493.18ZM860.03 1536.45C861.7 1552.14 873.82 1561.92 890.69 1561.92C908.53 1561.92 926.61 1549.48 926.61 1511.27C926.61 1497.35 926.05 1460.55 891.81 1460.55C872.43 1460.55 858.08 1471.77 858.08 1495.97C858.08 1512.53 869.09 1526.92 888.05 1526.92C894.74 1526.92 902.41 1525.25 906.87 1518.54L907.15 1518.82C907.01 1539.51 898.92 1546.28 890.84 1546.28C884.85 1546.28 880.52 1543.38 879.41 1536.6V1536.46H860.04L860.03 1536.45Z" fill="black"/>
    <path d="M962.5 1511.08C962.5 1485.71 965.57 1476.15 976.74 1476.15C987.91 1476.15 990.98 1485.72 990.98 1511.08C990.98 1536.45 987.91 1546.15 976.74 1546.15C965.57 1546.15 962.5 1536.45 962.5 1511.07V1511.08ZM942.5 1511.08C942.5 1545.6 953.47 1561.79 976.74 1561.79C1000.01 1561.79 1010.99 1545.6 1010.99 1511.08C1010.99 1476.56 1000.01 1460.51 976.74 1460.51C953.47 1460.51 942.49 1476.56 942.5 1511.08Z" fill="black"/>
    <path d="M1043.28 1500.07C1046.88 1497.56 1051.32 1494.64 1060.89 1494.64C1074.07 1494.64 1090.7 1503.83 1090.7 1526.4C1090.7 1539.8 1083.91 1561.75 1054.93 1561.75C1039.53 1561.75 1023.83 1552.56 1022.85 1532.75H1042.3C1043.13 1540.76 1047.43 1546.15 1056.03 1546.15C1065.32 1546.15 1070.73 1538.28 1070.73 1527.78C1070.73 1519.08 1066.57 1510.24 1056.31 1510.24C1053.67 1510.24 1047.01 1510.38 1043.27 1517.28L1025.9 1516.45L1032.71 1462.36H1086.81V1478.72H1046.73L1043.26 1500.06L1043.28 1500.07Z" fill="black"/>
    <path d="M1184.52 1560.06C1184.52 1619.44 1161.87 1678.82 1116.56 1724.12C1025.95 1814.73 879.04 1814.73 788.43 1724.12C717.64 1653.34 702.16 1548.19 741.97 1462.37H637.51C602.54 1575.46 629.82 1703.67 719.34 1793.19C848.1 1921.95 1056.86 1921.95 1185.62 1793.19C1250 1728.81 1282.19 1644.43 1282.19 1560.05H1184.5L1184.52 1560.06Z" fill="#FFB300"/>
    <path d="M1185.64 1326.93V1326.9C1176.29 1317.56 1166.26 1308.68 1155.58 1300.33C1136.06 1284.47 895.77 1114.32 866.15 1084.7C844.05 1062.6 830.38 1032.07 830.38 998.35C830.38 930.91 885.05 876.24 952.5 876.24C1019.95 876.24 1074.62 930.91 1074.62 998.35H1172.31C1172.31 876.96 1073.9 778.55 952.5 778.55C831.1 778.55 732.69 876.96 732.69 998.35C732.69 1059.05 757.29 1114 797.07 1153.77C836.53 1193.23 1068.51 1355.62 1095.41 1377.28C1102.93 1383.16 1109.99 1389.41 1116.58 1395.98V1396.01C1136.39 1415.83 1151.87 1438.34 1163.02 1462.36H1267.48C1252.15 1412.8 1224.88 1366.15 1185.65 1326.92L1185.64 1326.93Z" fill="#FFB300"/>
    <path d="M952.5 146.53L993.63 273.12H1126.74L1019.05 351.36L1060.19 477.95L952.5 399.71L844.81 477.95L885.95 351.36L778.26 273.12H911.37L952.5 146.53Z" fill="#FFB300"/>
    <path d="M484.4 281.81L515.89 411.14L402.63 481.05L535.36 491.07L566.85 620.39L617.39 497.26L750.12 507.27L648.63 421.15L699.17 298.02L585.9 367.93L484.4 281.81Z" fill="#FFB300"/>
    <path d="M145.23 623.2L229.71 726.07L157.98 838.19L281.91 789.64L366.39 892.51L358.51 759.64L482.45 711.09L353.65 677.52L345.77 544.65L274.04 656.77L145.23 623.2Z" fill="#FFB300"/>
    <path d="M1420.6 281.81L1389.11 411.14L1502.37 481.05L1369.64 491.07L1338.15 620.39L1287.61 497.26L1154.88 507.27L1256.37 421.15L1205.83 298.02L1319.1 367.93L1420.6 281.81Z" fill="#FFB300"/>
    <path d="M1759.77 623.2L1675.29 726.07L1747.02 838.19L1623.08 789.64L1538.61 892.51L1546.49 759.64L1422.55 711.09L1551.35 677.52L1559.23 544.65L1630.96 656.77L1759.77 623.2Z" fill="#FFB300"/>
  </g>
  <defs>
    <clipPath id="bleed">
      <rect width="1905" height="2366" fill="white"/>
    </clipPath>
  </defs>
</svg>
