<?xml version="1.0" encoding="UTF-8"?>
<svg id="GalatasarayLogo2026" xmlns="http://www.w3.org/2000/svg" width="432" height="600" viewBox="0 0 153 212">
  <defs>
    <style>
      .galatasaray-red { fill: #b81f41; }
      .galatasaray-yellow { fill: #f2ac1d; }
      .galatasaray-black { fill: #000000; }
    </style>
  </defs>
  <path class="galatasaray-yellow" d="M103.46,126.14c-.02,14.85-12.07,26.88-26.93,26.88s-26.93-12.06-26.93-26.93c0-4.26.99-8.28,2.75-11.86h-12.21c-1.22,3.73-1.87,7.72-1.87,11.86,0,21.13,17.13,38.27,38.27,38.27s38.24-17.11,38.27-38.22h-11.34Z"/>
  <path class="galatasaray-red" d="M127.56,126.14c0,28.18-22.84,51.02-51.02,51.02s-51.02-22.84-51.02-51.02,22.84-51.02,51.02-51.02c14.09,0,26.85,5.71,36.08,14.94l-8.02,8.02c-7.18-7.18-17.1-11.62-28.06-11.62-21.92,0-39.68,17.77-39.68,39.68s17.77,39.68,39.68,39.68,39.68-17.77,39.68-39.68h-15.52v-11.91h25.47c.91,3.82,1.4,7.81,1.4,11.91h0Z"/>
  <path class="galatasaray-yellow" d="M112.93,114.24h-12.21c-1.79-3.65-4.41-6.85-7.58-9.34-3.19-2.51-30.07-21.33-34.65-25.91-4.62-4.62-7.47-10.99-7.47-18.04,0-14.09,11.42-25.51,25.51-25.51s25.51,11.42,25.51,25.51h-11.34c0-7.83-6.35-14.17-14.17-14.17s-14.17,6.35-14.17,14.17c0,3.91,1.59,7.46,4.15,10.02,3.44,3.44,31.28,23.16,33.62,25,5.9,4.63,10.43,10.98,12.8,18.27h0Z"/>
  <g>
    <path class="galatasaray-black" d="M64.51,126.15h-2.15v-8.73c-.79.79-1.72,1.38-2.78,1.75v-2.11c1.61-.61,2.67-1.63,3.18-3.06h1.75v12.14h0Z"/>
    <path class="galatasaray-black" d="M67.78,123.36l2.08-.25c.1.9.52,1.35,1.26,1.35,1.01,0,1.59-1.13,1.73-3.4-.54.67-1.22,1.01-2.03,1.01-.99,0-1.78-.4-2.37-1.2-.59-.81-.88-1.73-.88-2.77s.3-2,.89-2.83c.59-.84,1.5-1.26,2.71-1.26,2.61,0,3.91,2.03,3.91,6.1s-1.37,6.25-4.12,6.25c-1.8,0-2.86-1.01-3.16-3.01h0ZM72.66,118.29c0-.6-.13-1.14-.4-1.63-.26-.49-.66-.73-1.18-.73-.92,0-1.39.72-1.39,2.17s.5,2.26,1.5,2.26,1.47-.69,1.47-2.07h0Z"/>
    <path class="galatasaray-black" d="M80.11,114.01c2.43,0,3.65,2.06,3.65,6.18s-1.22,6.16-3.65,6.16-3.65-2.06-3.65-6.19,1.22-6.15,3.65-6.15h0ZM80.11,115.93c-.47,0-.82.28-1.06.83-.23.55-.34,1.69-.34,3.42s.12,2.89.37,3.43c.24.54.59.81,1.03.81.51,0,.87-.31,1.08-.92.21-.61.32-1.72.32-3.32s-.11-2.72-.34-3.33c-.22-.61-.57-.92-1.06-.92h0Z"/>
    <path class="galatasaray-black" d="M85.23,123.04l2.15-.24c.16,1.13.69,1.69,1.58,1.69,1.07,0,1.61-.79,1.61-2.36,0-1.48-.55-2.22-1.67-2.22-.62,0-1.17.29-1.67.88l-1.74-.28,1.1-6.29h5.69v2.17h-4.06l-.34,2.04c.48-.25.97-.38,1.47-.38,1.01,0,1.83.38,2.46,1.15.64.76.96,1.73.96,2.88,0,.99-.31,1.96-.94,2.88-.63.92-1.59,1.38-2.91,1.38-2.16,0-3.4-1.1-3.71-3.31h0Z"/>
  </g>
</svg>