<?xml version="1.0" encoding="UTF-8"?>
<svg id="Galatasaray_Logo_2026" xmlns="http://www.w3.org/2000/svg" width="1370" height="1790" viewBox="0 0 1370 1790">
  <defs>
    <style>
      .galatasaray-red { fill: #b81f41; }
      .galatasaray-white { fill: #fff; }
      .galatasaray-black { fill: #000; }
      .galatasaray-yellow { fill: #f2ac1d; }
    </style>
  </defs>
  <g>
    <ellipse class="galatasaray-white" cx="685" cy="894.99" rx="583.37" ry="793.37"/>
    <path class="galatasaray-black" d="M685,1689.99c-39.73,0-79.43-5.44-118.01-16.18-37.59-10.46-74.56-26.07-109.88-46.39-34.67-19.94-68.11-44.63-99.38-73.36-30.97-28.45-60.09-61.13-86.55-97.11-26.45-35.98-50.47-75.56-71.38-117.66-21.11-42.49-39.24-87.91-53.88-135.01-14.91-47.96-26.37-98.14-34.05-149.17-7.88-52.35-11.87-106.22-11.87-160.13s3.99-107.79,11.87-160.13c7.68-51.02,19.13-101.21,34.05-149.17,14.65-47.09,32.77-92.52,53.88-135.01,20.91-42.09,44.93-81.68,71.38-117.66,26.46-35.99,55.58-68.66,86.55-97.11,31.27-28.74,64.71-53.42,99.38-73.36,35.32-20.32,72.29-35.93,109.88-46.39,38.57-10.74,78.28-16.18,118.01-16.18s79.43,5.44,118.01,16.18c37.59,10.46,74.56,26.07,109.88,46.39,34.67,19.94,68.11,44.63,99.38,73.36,30.97,28.45,60.09,61.13,86.55,97.11,26.45,35.98,50.47,75.56,71.38,117.66,21.11,42.49,39.24,87.91,53.88,135.01,14.91,47.96,26.37,98.14,34.05,149.17,7.88,52.35,11.87,106.22,11.87,160.13s-3.99,107.79-11.87,160.13c-7.68,51.02-19.13,101.21-34.05,149.17-14.65,47.09-32.77,92.52-53.88,135.01-20.91,42.09-44.93,81.68-71.38,117.66-26.46,35.99-55.58,68.66-86.55,97.11-31.27,28.74-64.71,53.42-99.38,73.36-35.32,20.32-72.29,35.93-109.88,46.39-38.57,10.74-78.28,16.18-118.01,16.18ZM685,103.26c-39.43,0-78.84,5.4-117.13,16.06-37.32,10.39-74.04,25.89-109.13,46.07-34.46,19.82-67.7,44.36-98.8,72.93-30.81,28.31-59.79,60.82-86.13,96.64-26.34,35.82-50.26,75.25-71.09,117.17-21.03,42.34-39.1,87.6-53.69,134.52-14.87,47.8-26.28,97.82-33.94,148.68-7.85,52.19-11.83,105.9-11.83,159.65s3.98,107.46,11.83,159.65c7.65,50.86,19.07,100.88,33.94,148.68,14.6,46.93,32.66,92.19,53.69,134.52,20.83,41.93,44.74,81.35,71.09,117.17,26.34,35.82,55.31,68.33,86.13,96.64,31.1,28.57,64.34,53.11,98.8,72.94,35.09,20.18,71.8,35.68,109.13,46.07,38.29,10.66,77.7,16.06,117.13,16.06s78.84-5.4,117.13-16.06c37.32-10.39,74.04-25.89,109.13-46.07,34.46-19.82,67.7-44.36,98.8-72.94,30.81-28.31,59.79-60.82,86.13-96.64,26.34-35.83,50.26-75.25,71.09-117.17,21.03-42.34,39.1-87.59,53.69-134.52,14.87-47.8,26.28-97.82,33.94-148.68,7.85-52.19,11.83-105.9,11.83-159.65s-3.98-107.46-11.83-159.65c-7.65-50.86-19.07-100.88-33.94-148.68-14.6-46.93-32.66-92.19-53.69-134.52-20.83-41.93-44.74-81.35-71.09-117.17-26.34-35.82-55.31-68.33-86.13-96.64-31.1-28.57-64.34-53.11-98.8-72.93-35.09-20.18-71.8-35.68-109.13-46.07-38.29-10.66-77.7-16.06-117.13-16.06Z"/>
  </g>
  <g>
    <path class="galatasaray-red" d="M1105.02,1058.33c0,231.97-188.05,420.02-420.02,420.02s-420.02-188.05-420.02-420.02,188.05-420.02,420.02-420.02c115.98,0,220.99,47.01,297,123.02l-66,66c-59.12-59.12-140.79-95.68-231-95.68-180.42,0-326.68,146.26-326.68,326.68s146.26,326.68,326.68,326.68,326.68-146.26,326.68-326.68h-126.01v-93.34h208.94c6.81,30.02,10.41,61.26,10.41,93.34h0Z"/>
    <g>
      <path id="1905-1" class="galatasaray-black" d="M534.42,981.21h2.63c17.76,0,22.5-9.23,22.9-16.22h15.16v93.34h-18.46v-64.34h-22.23v-12.79h0Z"/>
      <path id="1905-9" class="galatasaray-black" d="M613.42,994.43c0-13.56,8.66-15.95,13.45-15.95,9.59,0,14.25,6.65,14.25,17.42s-7.19,15.82-13.72,15.82c-7.06,0-13.99-3.06-13.99-17.28h0ZM596.65,1035.77c1.59,14.99,13.18,24.33,29.3,24.33,17.05,0,34.32-11.88,34.32-48.4,0-13.3-.53-48.46-33.25-48.46-18.52,0-32.23,10.72-32.23,33.84,0,15.82,10.52,29.57,28.63,29.57,6.4,0,13.72-1.6,17.98-8.01l.27.27c-.13,19.76-7.86,26.24-15.58,26.24-5.73,0-9.86-2.77-10.92-9.25v-.13h-18.51Z"/>
      <path id="1905-0" class="galatasaray-black" d="M694.56,1011.53c0-24.24,2.93-33.38,13.6-33.38s13.6,9.14,13.6,33.38c0,24.24-2.94,33.51-13.6,33.51-10.67,0-13.6-9.27-13.6-33.51h0ZM675.44,1011.53c0,32.98,10.48,48.45,32.72,48.45s32.72-15.47,32.72-48.45-10.49-48.32-32.72-48.32-32.72,15.34-32.72,48.31h0Z"/>
      <path id="1905-5" class="galatasaray-black" d="M771.73,1001.01c3.44-2.39,7.69-5.19,16.83-5.19,12.59,0,28.48,8.78,28.48,30.35,0,12.8-6.49,33.78-34.18,33.78-14.72,0-29.72-8.78-30.65-27.71h18.58c.8,7.66,4.9,12.8,13.12,12.8,8.88,0,14.05-7.52,14.05-17.55,0-8.32-3.97-16.76-13.78-16.76-2.52,0-8.88.13-12.46,6.73l-16.59-.79,6.51-51.68h51.69v15.63h-38.3l-3.31,20.39h0Z"/>
    </g>
    <path class="galatasaray-yellow" d="M906.68,1058.33c0,56.73-21.64,113.47-64.93,156.75-86.57,86.57-226.93,86.57-313.5,0-67.63-67.63-82.43-168.09-44.39-250.08h-99.8c-33.41,108.06-7.35,230.55,78.19,316.08,123.02,123.02,322.48,123.02,445.5,0,61.51-61.51,92.27-142.13,92.27-222.75h-93.34,0Z"/>
    <path class="galatasaray-yellow" d="M907.75,835.58v-.03c-8.93-8.92-18.51-17.41-28.72-25.39-18.65-15.15-248.23-177.72-276.53-206.02-21.11-21.11-34.17-50.28-34.17-82.5,0-64.44,52.24-116.67,116.67-116.67s116.67,52.24,116.67,116.67h93.34c0-115.98-94.03-210.01-210.01-210.01s-210.01,94.02-210.01,210.01c0,57.99,23.51,110.49,61.51,148.5,37.7,37.7,259.34,192.85,285.04,213.55,7.18,5.62,13.93,11.59,20.22,17.87v.02c18.93,18.93,33.72,40.44,44.37,63.4h99.8c-14.64-47.35-40.71-91.92-78.19-129.41h0Z"/>
  </g>
</svg>