<svg id="Galatasaray_Logo_Monochrome_2026" width="1905" height="2458" viewBox="0 0 1905 2458" fill="none"
  xmlns="http://www.w3.org/2000/svg">
  <path d="M925.74 891.66C934.61 891.24 943.53 891.02 952.5 891.02C1105.22 891.02 1243.49 952.918 1343.57 1053.01L1256.69 1139.87L1256.66 1139.9C1207.04 1090.28 1124.12 1040.92 925.73 891.65L925.74 891.66Z" fill="black"/>
  <path d="M1505.56 1444.07C1505.56 1749.52 1257.95 1997.12 952.5 1997.12C647.05 1997.12 399.44 1749.52 399.44 1444.07C399.44 1215 538.71 1018.46 737.2 934.498C740.1 937.668 743.07 940.768 746.1 943.798C762.17 959.867 801.33 990.547 849.22 1026.41C661.53 1072.65 522.34 1242.11 522.34 1444.07C522.34 1681.64 714.93 1874.22 952.5 1874.22C1190.07 1874.22 1382.66 1681.64 1382.66 1444.07H1216.74V1321.18H1491.86C1500.83 1360.71 1505.57 1401.83 1505.57 1444.07H1505.56Z" fill="black"/>
  <path d="M754.23 1342.53H757.69C781.08 1342.53 787.32 1330.38 787.84 1321.18H807.8V1444.08H783.5V1359.37H754.22V1342.53H754.23Z" fill="black"/>
  <path d="M858.25 1359.93C858.25 1342.08 869.65 1338.92 875.97 1338.92C888.6 1338.92 894.74 1347.67 894.74 1361.85C894.74 1376.03 885.27 1382.68 876.67 1382.68C867.38 1382.68 858.25 1378.65 858.25 1359.92V1359.93ZM836.17 1414.37C838.27 1434.1 853.52 1446.41 874.75 1446.41C897.19 1446.41 919.94 1430.76 919.94 1382.69C919.94 1365.18 919.24 1318.88 876.16 1318.88C851.78 1318.88 833.72 1333 833.72 1363.44C833.72 1384.28 847.57 1402.38 871.42 1402.38C879.84 1402.38 889.49 1400.27 895.1 1391.84L895.45 1392.19C895.27 1418.21 885.1 1426.73 874.93 1426.73C867.39 1426.73 861.95 1423.08 860.55 1414.55V1414.37H836.18H836.17Z" fill="black"/>
  <path d="M965.08 1382.46C965.08 1350.55 968.94 1338.51 982.99 1338.51C997.04 1338.51 1000.9 1350.55 1000.9 1382.46C1000.9 1414.36 997.03 1426.57 982.99 1426.57C968.94 1426.57 965.08 1414.36 965.08 1382.45V1382.46ZM939.92 1382.46C939.92 1425.88 953.72 1446.25 983 1446.25C1012.28 1446.25 1026.09 1425.88 1026.09 1382.47C1026.09 1339.05 1012.28 1318.85 983 1318.85C953.72 1318.85 939.92 1339.05 939.92 1382.47V1382.46Z" fill="black"/>
  <path d="M1066.71 1368.61C1071.25 1365.46 1076.83 1361.77 1088.87 1361.77C1105.45 1361.77 1126.38 1373.34 1126.38 1401.73C1126.38 1418.57 1117.83 1446.2 1081.37 1446.2C1061.99 1446.2 1042.24 1434.64 1041.02 1409.72H1065.49C1066.54 1419.79 1071.95 1426.57 1082.76 1426.57C1094.45 1426.57 1101.26 1416.67 1101.26 1403.47C1101.26 1392.52 1096.03 1381.4 1083.11 1381.4C1079.79 1381.4 1071.41 1381.58 1066.71 1390.26L1044.86 1389.22L1053.43 1321.17H1121.5V1341.75H1071.08L1066.72 1368.6L1066.71 1368.61Z" fill="black"/>
  <path d="M1367.02 1459.43C1363.3 1560.41 1322.9 1660.29 1245.81 1737.38C1083.82 1899.36 821.19 1899.36 659.2 1737.38C546.57 1624.75 512.25 1463.46 556.25 1321.18H687.66C637.57 1429.14 657.05 1561.42 746.11 1650.47C860.1 1764.45 1044.92 1764.45 1158.91 1650.47C1212 1597.38 1240.36 1528.93 1244 1459.43H1367.02Z" fill="black"/>
  <path d="M1343.68 1305.82H1209.66C1196.49 1281.35 1179.57 1258.36 1158.91 1237.7V1237.67C1150.62 1229.4 1141.74 1221.53 1132.29 1214.14C1098.45 1186.88 806.61 982.587 756.96 932.948C706.92 882.91 675.97 813.782 675.97 737.414C675.97 584.698 799.78 460.892 952.5 460.892C1105.22 460.892 1229.03 584.698 1229.03 737.414H1106.13C1106.13 652.566 1037.35 583.788 952.5 583.788C867.65 583.788 798.87 652.566 798.87 737.414C798.87 779.833 816.07 818.242 843.87 846.041C881.14 883.31 1183.44 1097.37 1208 1117.32C1221.44 1127.83 1234.05 1139 1245.83 1150.75L1245.81 1150.79C1291.09 1196.07 1323.71 1249.22 1343.68 1305.83V1305.82Z" fill="black"/>
</svg>
